<svg width="389" height="313" viewBox="0 0 389 313" fill="none" xmlns="http://www.w3.org/2000/svg">
<path d="M239.554 169.996L239.554 169.996L239.563 169.987C292.714 116.39 364.177 112.179 383.767 112.088C386.567 112.075 388.725 114.316 388.7 117.249C388.545 136.729 383.888 205.238 328.845 256.273L328.845 256.272L328.836 256.281C272.801 312.726 217.342 312.707 195.239 312.7C194.988 312.7 194.742 312.7 194.5 312.7C194.26 312.7 194.017 312.7 193.769 312.7C171.67 312.707 116.192 312.726 60.1636 256.281L60.1638 256.281L60.1547 256.273C5.11838 205.245 0.455347 136.729 0.300228 117.249L0.300226 117.249C0.274575 114.316 2.43294 112.075 5.23276 112.088C24.8228 112.179 96.2861 116.39 149.437 169.987L149.437 169.987L149.446 169.996C171.774 190.66 185.421 214.143 194.221 236.161L194.5 236.858L194.779 236.161C203.579 214.143 217.226 190.66 239.554 169.996ZM199.432 2.09875L199.432 2.09884C229.73 29.3757 253.506 72.93 264.618 122.051C250.699 130.342 236.908 140.585 224.054 153.547C213.008 163.762 203.098 175.479 194.486 188.514C185.833 175.431 175.691 163.471 164.278 152.89C151.674 140.18 138.126 130.111 124.416 121.947C135.548 72.8672 159.324 29.3548 189.609 2.09887C192.277 -0.299785 196.77 -0.299417 199.432 2.09875Z" fill="#F0483E" stroke="#E5E5E5" stroke-width="0.6"/>
</svg>
