<svg width="129" height="32" viewBox="0 0 129 32" fill="none" xmlns="http://www.w3.org/2000/svg">
<g clip-path="url(#clip0_413_11)">
<path d="M24.1406 18.0333L24.1408 18.0335L24.1499 18.0244C29.3878 12.7946 36.4426 12.3787 38.3827 12.3698C38.5049 12.3692 38.606 12.4611 38.6048 12.6082L38.6047 12.6084C38.5894 14.5129 38.1273 21.2015 32.7061 26.1783L32.7059 26.1782L32.6971 26.1869C27.1717 31.6978 21.7174 31.6958 19.5288 31.695C19.5029 31.695 19.4774 31.695 19.4524 31.695C19.4276 31.695 19.4024 31.695 19.3767 31.695C17.1886 31.6958 11.7324 31.6978 6.20767 26.1869L6.20785 26.1868L6.19869 26.1783C0.77815 21.2021 0.315331 14.5129 0.300014 12.6084L0.300012 12.6082C0.298713 12.4611 0.399873 12.3692 0.522088 12.3698H0.522106C2.46213 12.3787 9.51699 12.7946 14.7549 18.0244L14.7547 18.0246L14.7642 18.0333C16.9613 20.0467 18.3056 22.3356 19.1742 24.4873L19.4524 25.1764L19.7306 24.4873C20.5992 22.3356 21.9435 20.0467 24.1406 18.0333ZM19.766 1.40949L19.7661 1.40958C22.7065 4.03068 25.0377 8.21218 26.1574 12.9549C24.8079 13.7667 23.4715 14.7623 22.2216 16.0095C21.1969 16.9484 20.2692 18.0129 19.4508 19.1884C18.6252 18.0045 17.6748 16.9167 16.6164 15.9446C15.3912 14.722 14.0791 13.7438 12.7509 12.9446C13.8725 8.20612 16.2036 4.02879 19.1426 1.40973C19.3073 1.26314 19.6023 1.26346 19.766 1.40949Z" fill="#F0483E" stroke="#E5E5E5" stroke-width="0.6"/>
<path d="M46.632 25V8.2H49.704L57.6 20.032V8.2H60.672V25H57.6L49.704 13.192V25H46.632ZM69.5689 25.288C68.4169 25.288 67.3769 25.024 66.4489 24.496C65.5369 23.968 64.8089 23.24 64.2649 22.312C63.7369 21.368 63.4729 20.28 63.4729 19.048C63.4729 17.816 63.7449 16.736 64.2889 15.808C64.8329 14.864 65.5609 14.128 66.4729 13.6C67.4009 13.072 68.4409 12.808 69.5929 12.808C70.7289 12.808 71.7529 13.072 72.6649 13.6C73.5929 14.128 74.3209 14.864 74.8489 15.808C75.3929 16.736 75.6649 17.816 75.6649 19.048C75.6649 20.28 75.3929 21.368 74.8489 22.312C74.3209 23.24 73.5929 23.968 72.6649 24.496C71.7369 25.024 70.7049 25.288 69.5689 25.288ZM69.5689 22.624C70.3689 22.624 71.0649 22.328 71.6569 21.736C72.2489 21.128 72.5449 20.232 72.5449 19.048C72.5449 17.864 72.2489 16.976 71.6569 16.384C71.0649 15.776 70.3769 15.472 69.5929 15.472C68.7769 15.472 68.0729 15.776 67.4809 16.384C66.9049 16.976 66.6169 17.864 66.6169 19.048C66.6169 20.232 66.9049 21.128 67.4809 21.736C68.0729 22.328 68.7689 22.624 69.5689 22.624ZM78.4116 25V13.096H81.1476L81.4356 15.328C81.8676 14.56 82.4516 13.952 83.1876 13.504C83.9396 13.04 84.8196 12.808 85.8276 12.808V16.048H84.9636C84.2916 16.048 83.6916 16.152 83.1636 16.36C82.6356 16.568 82.2196 16.928 81.9156 17.44C81.6276 17.952 81.4836 18.664 81.4836 19.576V25H78.4116ZM93.1883 25.288C92.0683 25.288 91.0683 25.016 90.1883 24.472C89.3083 23.928 88.6123 23.184 88.1003 22.24C87.5883 21.296 87.3323 20.224 87.3323 19.024C87.3323 17.824 87.5883 16.76 88.1003 15.832C88.6123 14.888 89.3083 14.152 90.1883 13.624C91.0683 13.08 92.0683 12.808 93.1883 12.808C94.0843 12.808 94.8683 12.976 95.5403 13.312C96.2123 13.648 96.7563 14.12 97.1723 14.728V7.72H100.244V25H97.5083L97.1723 23.296C96.7883 23.824 96.2763 24.288 95.6363 24.688C95.0123 25.088 94.1963 25.288 93.1883 25.288ZM93.8363 22.6C94.8283 22.6 95.6363 22.272 96.2603 21.616C96.9003 20.944 97.2203 20.088 97.2203 19.048C97.2203 18.008 96.9003 17.16 96.2603 16.504C95.6363 15.832 94.8283 15.496 93.8363 15.496C92.8603 15.496 92.0523 15.824 91.4123 16.48C90.7723 17.136 90.4523 17.984 90.4523 19.024C90.4523 20.064 90.7723 20.92 91.4123 21.592C92.0523 22.264 92.8603 22.6 93.8363 22.6ZM109.157 25.288C107.957 25.288 106.893 25.032 105.965 24.52C105.037 24.008 104.309 23.288 103.781 22.36C103.253 21.432 102.989 20.36 102.989 19.144C102.989 17.912 103.245 16.816 103.757 15.856C104.285 14.896 105.005 14.152 105.917 13.624C106.845 13.08 107.933 12.808 109.181 12.808C110.349 12.808 111.381 13.064 112.277 13.576C113.173 14.088 113.869 14.792 114.365 15.688C114.877 16.568 115.133 17.552 115.133 18.64C115.133 18.816 115.125 19 115.109 19.192C115.109 19.384 115.101 19.584 115.085 19.792H106.037C106.101 20.72 106.421 21.448 106.997 21.976C107.589 22.504 108.301 22.768 109.133 22.768C109.757 22.768 110.277 22.632 110.693 22.36C111.125 22.072 111.445 21.704 111.653 21.256H114.773C114.549 22.008 114.173 22.696 113.645 23.32C113.133 23.928 112.493 24.408 111.725 24.76C110.973 25.112 110.117 25.288 109.157 25.288ZM109.181 15.304C108.429 15.304 107.765 15.52 107.189 15.952C106.613 16.368 106.245 17.008 106.085 17.872H112.013C111.965 17.088 111.677 16.464 111.149 16C110.621 15.536 109.965 15.304 109.181 15.304ZM120.464 25L116.096 13.096H119.312L122.336 22.096L125.36 13.096H128.576L124.184 25H120.464Z" fill="#819299"/>
</g>
<defs>
<clipPath id="clip0_413_11">
<rect width="129" height="32" fill="white"/>
</clipPath>
</defs>
</svg>
